<?xml version="1.0" encoding="UTF-8"?>
<svg width="512px" height="512px" viewBox="0 0 512 512" version="1.1" xmlns="http://www.w3.org/2000/svg" xmlns:xlink="http://www.w3.org/1999/xlink">
    <!-- Generator: Sketch 53.2 (72643) - https://sketchapp.com -->
    <title>business-and-trade</title>
    <desc>Created with Sketch.</desc>
    <defs>
        <linearGradient x1="0%" y1="50%" x2="100%" y2="50%" id="linearGradient-1">
            <stop stop-color="#5A67D8" offset="0%"></stop>
            <stop stop-color="#434190" offset="100%"></stop>
        </linearGradient>
    </defs>
    <g id="Page-1" stroke="none" stroke-width="1" fill="none" fill-rule="evenodd">
        <g id="business-and-trade" fill-rule="nonzero">
            <path d="M416,512 L96,512 C42.976,512 0,469.024 0,416 L0,96 C0,42.976 42.976,0 96,0 L416,0 C469.024,0 512,42.976 512,96 L512,416 C512,469.024 469.024,512 416,512 Z" id="Path" fill="url(#linearGradient-1)"></path>
            <path d="M149.76,130.608 C144.32,129.76 138.768,131.248 134.608,134.768 C130.448,138.4 128,143.616 128,149.056 L128,373.808 C128,379.68 132.8,384.48 138.672,384.48 L173.344,384.48 L173.344,328.48 C173.344,318.128 181.664,309.808 192.016,309.808 L218.688,309.808 C229.04,309.808 237.36,318.128 237.36,328.48 L237.36,384.48 L282.688,384.48 L282.688,166.88 C282.672,157.696 276.048,149.92 266.992,148.416 L149.76,130.608 Z M186.672,285.808 L170.672,285.808 C166.256,285.808 162.672,282.224 162.672,277.808 C162.672,273.392 166.256,269.808 170.672,269.808 L186.672,269.808 C191.088,269.808 194.672,273.392 194.672,277.808 C194.672,282.224 191.088,285.808 186.672,285.808 Z M186.672,253.808 L170.672,253.808 C166.256,253.808 162.672,250.224 162.672,245.808 C162.672,241.392 166.256,237.808 170.672,237.808 L186.672,237.808 C191.088,237.808 194.672,241.392 194.672,245.808 C194.672,250.224 191.088,253.808 186.672,253.808 Z M186.672,221.808 L170.672,221.808 C166.256,221.808 162.672,218.224 162.672,213.808 C162.672,209.392 166.256,205.808 170.672,205.808 L186.672,205.808 C191.088,205.808 194.672,209.392 194.672,213.808 C194.672,218.224 191.088,221.808 186.672,221.808 Z M186.672,189.808 L170.672,189.808 C166.256,189.808 162.672,186.224 162.672,181.808 C162.672,177.392 166.256,173.808 170.672,173.808 L186.672,173.808 C191.088,173.808 194.672,177.392 194.672,181.808 C194.672,186.224 191.088,189.808 186.672,189.808 Z M240,285.808 L224,285.808 C219.584,285.808 216,282.224 216,277.808 C216,273.392 219.584,269.808 224,269.808 L240,269.808 C244.416,269.808 248,273.392 248,277.808 C248,282.224 244.416,285.808 240,285.808 Z M240,253.808 L224,253.808 C219.584,253.808 216,250.224 216,245.808 C216,241.392 219.584,237.808 224,237.808 L240,237.808 C244.416,237.808 248,241.392 248,245.808 C248,250.224 244.416,253.808 240,253.808 Z M240,221.808 L224,221.808 C219.584,221.808 216,218.224 216,213.808 C216,209.392 219.584,205.808 224,205.808 L240,205.808 C244.416,205.808 248,209.392 248,213.808 C248,218.224 244.416,221.808 240,221.808 Z M240,189.808 L224,189.808 C219.584,189.808 216,186.224 216,181.808 C216,177.392 219.584,173.808 224,173.808 L240,173.808 C244.416,173.808 248,177.392 248,181.808 C248,186.224 244.416,189.808 240,189.808 Z" id="Shape" fill="#FFFFFF"></path>
            <path d="M369.28,244.128 L293.328,228.224 L293.328,384.48 L365.328,384.48 C375.616,384.48 384,376.112 384,365.808 L384,262.368 C384,253.552 377.984,246.048 369.28,244.128 Z M344,352.48 L328,352.48 C323.584,352.48 320,348.896 320,344.48 C320,340.064 323.584,336.48 328,336.48 L344,336.48 C348.416,336.48 352,340.064 352,344.48 C352,348.896 348.416,352.48 344,352.48 Z M344,320.48 L328,320.48 C323.584,320.48 320,316.896 320,312.48 C320,308.064 323.584,304.48 328,304.48 L344,304.48 C348.416,304.48 352,308.064 352,312.48 C352,316.896 348.416,320.48 344,320.48 Z M344,288.48 L328,288.48 C323.584,288.48 320,284.896 320,280.48 C320,276.064 323.584,272.48 328,272.48 L344,272.48 C348.416,272.48 352,276.064 352,280.48 C352,284.896 348.416,288.48 344,288.48 Z" id="Shape" fill="#A3BFFA"></path>
        </g>
    </g>
</svg>